PathFileType	4	(X/Y/Z)	C:/Users/opensim2020/Desktop/walking_exp_matlab/subject03_walking07_straight_01.trc	
DataRate	CameraRate	NumFrames	NumMarkers	Units	OrigDataRate	OrigDataStartFrame	OrigNumFrames	
100.00	100.00	4	46	mm	100.00	665	310	
Frame#	Time	LFHD			RFHD			LBHD			RBHD			C7			T10			CLAV			STRN			RBAK			LSHO			LUPA			LELB			LFRM			LWRA			LWRB			LFIN			RSHO			RUPA			RELB			RFRM			RWRA			RWRB			RFIN			LASI			RASI			LPSI			RPSI			LTHI			LKNE			LTIB			LANK			LHEE			LTOE			RTHI			RKNE			RTIB			RANK			RHEE			RTOE			*39			*40			*41			*42			*43			*44			*45			
		X1	Y1	Z1	X2	Y2	Z2	X3	Y3	Z3	X4	Y4	Z4	X5	Y5	Z5	X6	Y6	Z6	X7	Y7	Z7	X8	Y8	Z8	X9	Y9	Z9	X10	Y10	Z10	X11	Y11	Z11	X12	Y12	Z12	X13	Y13	Z13	X14	Y14	Z14	X15	Y15	Z15	X16	Y16	Z16	X17	Y17	Z17	X18	Y18	Z18	X19	Y19	Z19	X20	Y20	Z20	X21	Y21	Z21	X22	Y22	Z22	X23	Y23	Z23	X24	Y24	Z24	X25	Y25	Z25	X26	Y26	Z26	X27	Y27	Z27	X28	Y28	Z28	X29	Y29	Z29	X30	Y30	Z30	X31	Y31	Z31	X32	Y32	Z32	X33	Y33	Z33	X34	Y34	Z34	X35	Y35	Z35	X36	Y36	Z36	X37	Y37	Z37	X38	Y38	Z38	X39	Y39	Z39	X40	Y40	Z40	X41	Y41	Z41	X42	Y42	Z42	X43	Y43	Z43	X44	Y44	Z44	X45	Y45	Z45	X46	Y46	Z46	

1	0.000	1399.65454	-1311.65088	1612.45068	1531.87939	-1306.60583	1613.12244	1407.27246	-1435.31799	1558.12146	1538.02747	-1426.83191	1559.57764	1475.82568	-1457.00403	1412.56226	1474.91687	-1532.05298	1109.32935	1455.55969	-1341.54578	1325.51965	1444.87585	-1324.16846	1154.50500	1582.80627	-1510.01672	1246.48816	1308.22827	-1405.28625	1372.57947	1242.42310	-1465.91760	1182.19824	1229.78906	-1487.44775	1059.99146	1226.50049	-1476.60461	930.07672	1257.15625	-1467.07288	810.19275	1209.93530	-1496.97510	818.41998	1219.35327	-1489.61548	733.84082	1618.32104	-1354.53137	1347.46423	1681.09155	-1321.89063	1127.17517	1677.84204	-1286.32458	1018.95227	1652.02209	-1242.21594	891.93982	1592.88391	-1205.67139	812.90704	1642.18738	-1219.11963	794.79443	1611.78882	-1186.05371	734.78741	1341.37634	-1390.28418	937.37476	1574.92578	-1382.68225	919.04236	1395.11243	-1550.92224	963.18079	1545.09375	-1540.53198	968.26154	1271.95435	-1391.55725	645.32922	1311.09558	-1331.47961	484.44461	1293.29407	-1321.47864	288.45203	1313.10071	-1267.75037	82.90123	1351.68152	-1295.19775	39.11669	1320.34888	-1114.32263	72.52135	1609.73523	-1502.32336	637.77045	1575.72607	-1533.04163	462.15482	1568.41504	-1628.66919	293.84433	1515.07190	-1699.34448	88.55073	1454.74500	-1733.65247	59.65329	1540.08093	-1566.15588	36.08973																					 
2	0.010	1397.69067	-1307.04590	1612.06348	1530.07544	-1302.35303	1613.08765	1405.34155	-1430.81116	1557.56653	1536.04968	-1422.24573	1559.13367	1473.97363	-1452.03784	1412.09058	1473.91345	-1526.86780	1108.83289	1454.00293	-1336.53711	1325.03772	1443.88928	-1318.91125	1154.09814	1581.43750	-1505.03259	1246.36157	1306.52747	-1400.29333	1371.52368	1240.58875	-1461.37305	1181.23779	1228.09607	-1482.35339	1058.96350	1225.06787	-1471.08752	929.01685	1255.86072	-1461.63525	809.26428	1208.28113	-1491.03796	817.43604	1217.36182	-1482.96118	732.95575	1616.77319	-1349.47205	1347.53503	1679.65027	-1316.76514	1127.25366	1676.50647	-1281.45557	1018.92322	1651.15991	-1237.95264	891.63794	1592.09460	-1201.76428	812.05029	1641.70715	-1215.10132	794.37463	1611.01172	-1182.21875	733.42487	1340.94592	-1385.11353	936.24811	1574.57898	-1377.78406	918.67358	1394.08459	-1545.25854	962.53436	1544.14465	-1535.48645	967.60297	1271.77197	-1385.62756	644.73828	1311.18115	-1325.69836	483.87625	1292.58679	-1314.96350	288.10092	1312.24707	-1260.45227	82.63242	1350.61438	-1288.18420	38.90079	1320.65808	-1107.04773	72.52498	1609.61060	-1498.38623	637.77148	1575.97668	-1529.64563	462.13116	1568.67090	-1626.37573	294.34613	1515.59534	-1698.90222	89.82806	1455.24292	-1733.44214	61.28717	1540.21484	-1566.04407	36.01900																					 
3	0.020	1395.55823	-1302.62231	1611.85071	1528.15149	-1297.71606	1613.02502	1403.30457	-1426.06555	1557.07861	1534.04089	-1417.56091	1558.78406	1472.05786	-1446.94080	1411.75720	1472.79175	-1521.47363	1108.38550	1452.38586	-1331.23169	1324.71851	1442.94263	-1313.39734	1153.79773	1579.93384	-1499.89990	1246.26978	1304.74585	-1395.08521	1370.54224	1238.98401	-1455.90222	1180.26074	1226.28894	-1476.99280	1057.96399	1223.41553	-1465.46973	928.04504	1254.35632	-1455.96179	808.44995	1206.78870	-1484.87073	816.30634	1215.16418	-1476.37134	732.34814	1615.17590	-1344.40002	1347.73450	1678.17163	-1311.71802	1127.45898	1675.29846	-1276.70923	1019.00397	1650.40723	-1233.77563	891.42419	1591.65833	-1198.06335	811.43237	1641.49902	-1211.28723	794.02753	1610.91028	-1179.25562	732.79474	1340.38806	-1379.03784	935.71271	1574.11768	-1372.71948	918.40918	1392.89929	-1539.39038	961.95929	1542.98364	-1530.33533	967.17395	1271.49585	-1379.35889	644.29279	1311.06165	-1320.19214	483.33505	1292.07800	-1308.81934	287.65909	1311.54688	-1254.00989	82.12529	1349.51245	-1282.12122	38.43283	1321.10181	-1100.64441	72.03086	1609.48987	-1494.44360	637.92560	1576.22705	-1526.08142	462.18100	1569.06152	-1624.01611	295.11575	1516.13257	-1698.40723	91.23779	1455.76038	-1733.20007	63.04868	1540.38159	-1565.96997	35.97908																					 
4	0.030	1393.42212	-1297.77039	1611.69910	1525.95129	-1293.12817	1613.12036	1401.26868	-1421.21997	1556.55884	1532.00940	-1412.72900	1558.52832	1470.05237	-1441.62671	1411.38611	1471.54895	-1515.91479	1108.02771	1450.86194	-1325.77161	1324.58618	1441.90479	-1307.66357	1153.62000	1578.34912	-1494.60742	1246.23315	1302.84155	-1389.71130	1369.68652	1237.27002	-1449.95740	1179.05457	1224.45593	-1471.38184	1057.07959	1221.55151	-1459.74243	927.20837	1252.55566	-1450.04810	807.56860	1204.73511	-1479.11633	815.64795	1212.84521	-1469.68628	731.71509	1613.50684	-1339.15344	1347.98022	1676.66736	-1306.68738	1127.75085	1674.08215	-1271.93079	1019.11786	1649.95752	-1229.59668	891.42969	1591.26086	-1194.42004	810.57813	1641.34546	-1207.46545	793.68524	1611.43848	-1176.22400	732.69989	1339.79712	-1372.58069	935.31079	1573.51416	-1367.41370	918.22125	1391.58435	-1533.27039	961.51752	1541.73413	-1524.99365	966.84821	1271.43750	-1372.07544	644.23431	1311.03076	-1314.37842	482.81888	1290.92224	-1302.99597	287.01157	1311.03320	-1248.56592	81.50612	1348.88062	-1276.94519	37.92270	1321.79211	-1095.60474	70.60936	1609.22070	-1490.24280	638.09497	1576.52869	-1522.31213	462.39975	1569.29480	-1621.43628	295.82883	1516.61951	-1697.68213	92.58115	1456.37073	-1732.89294	64.97675	1540.51917	-1565.83289	35.92436																					 
